# xmcd
#
# Track frame offsets:
#	150
#	8322
#	20522
#	29882
#	38399
#	49162
#	60415
#	71803
#	82083
#	90105
#	100696
#	115492
#	126506
#	138507
#
# Disc length: 1995 seconds
#
# Revision: 1
# Processed by: cddbd v1.5.1PL0 Copyright (c) Steve Scherf et al.
# Submitted via: audiograbber 1.83.01
#
DISCID=b307c90e
DTITLE=John Hore - My World
DYEAR=1900
DGENRE=
TTITLE0=Love's Gonna Live Here
TTITLE1=Behind The Footlights
TTITLE2=A Little Bit Lonesome
TTITLE3=Roller Skate
TTITLE4=She Picked A Perfect Day
TTITLE5=McKenzie And His Dog
TTITLE6=Ribbon Of Darkness
TTITLE7=I'm Leaving Town
TTITLE8=Hey Good Looking
TTITLE9=Act Naturally
TTITLE10=Blues Stay Away From Me
TTITLE11=What's He Doing In My World
TTITLE12=Jenny Lou
TTITLE13=Do What You Do Do Well
EXTD=
EXTT0=
EXTT1=
EXTT2=
EXTT3=
EXTT4=
EXTT5=
EXTT6=
EXTT7=
EXTT8=
EXTT9=
EXTT10=
EXTT11=
EXTT12=
EXTT13=
PLAYORDER=
